inDegrees=yes
name=ik_S51_A06_T03
DataType=double
version=3
OpenSimVersion=4.3-2021-08-27-4bc7ad9
endheader
time	pelvis_tilt	pelvis_list	pelvis_rotation	pelvis_tx	pelvis_ty	pelvis_tz	hip_flexion_r	hip_adduction_r	hip_rotation_r	knee_angle_r	knee_angle_r_beta	ankle_angle_r	subtalar_angle_r	mtp_angle_r	hip_flexion_l	hip_adduction_l	hip_rotation_l	knee_angle_l	knee_angle_l_beta	ankle_angle_l	subtalar_angle_l	mtp_angle_l	lumbar_extension	lumbar_bending	lumbar_rotation	arm_flex_r	arm_add_r	arm_rot_r	elbow_flex_r	pro_sup_r	wrist_flex_r	wrist_dev_r	arm_flex_l	arm_add_l	arm_rot_l	elbow_flex_l	pro_sup_l	wrist_flex_l	wrist_dev_l
15.71999999999975	-3.899633620670647	0.4431674358197652	24.25360043169485	0	0.9399999999999999	0	42.37254282855377	-10.57002108236513	-10.43412792387037	54.25686876942915	0.9469610018490229	0	0	0	42.37254282855377	-10.57002108236513	-10.43412792387037	54.25686876942915	0.9469610018490229	0	0	0	-1.984693818725911	0.6011694274558086	0.513403661808964	27.03425075474415	-23.02185134805795	-2.909302275471692	57.38653370539276	127.223466852001	0	0	70.60941194264882	10.2650643320682	-7.271781593708697	28.71487703874435	123.9954304113443	0	0
15.73999999999975	-3.896781851415532	0.446995488197345	24.24653377488558	0	0.9399999999999999	0	42.37607082800868	-10.56707770949252	-10.43275168520756	54.25752480756569	0.9469724518745241	0	0	0	42.37607082800868	-10.56707770949252	-10.43275168520756	54.25752480756569	0.9469724518745241	0	0	0	-1.98176474133683	0.6048884771952558	0.5092486399462725	27.06016872679495	-23.03880666471971	-2.886318968040064	57.41010532968551	127.1778268566754	0	0	70.59045789586872	10.24728206630334	-7.268000554078157	28.76598358407414	123.9826765353002	0	0
15.75999999999975	-3.894428263339719	0.4500269046073832	24.25614963272906	0	0.9399999999999999	0	42.37377405006754	-10.56855554413337	-10.43353596567256	54.25708335301387	0.9469647470390968	0	0	0	42.37377405006754	-10.56855554413337	-10.43353596567256	54.25708335301387	0.9469647470390968	0	0	0	-1.977486387028026	0.6059074313460308	0.5066267438202726	27.06968236397949	-23.03532967744044	-2.896632005737053	57.38781443241685	127.2063288057707	0	1.616420763446103e-35	70.58722600693996	10.25565264235788	-7.311910064297176	28.67254780734671	123.9919742303642	0	1.616420763446103e-35
15.77999999999975	-3.880376883353714	0.4607649587735498	24.24563618921184	0	0.9399999999999999	0	42.37727899206731	-10.56718946427518	-10.43262090708004	54.25781800584424	0.9469775691498459	0	0	0	42.37727899206731	-10.56718946427518	-10.43262090708004	54.25781800584424	0.9469775691498459	0	0	0	-1.961617931644459	0.6115802858635825	0.4989638717639846	27.08380624616474	-23.04447044900768	-2.86180538904226	57.39418490604135	127.1910459382517	0	0	70.55150858125364	10.24321537469007	-7.357506920902411	28.57134883625788	123.7783219461846	0	0
15.79999999999975	-3.892354987792263	0.466157711187578	24.00770855328325	0	0.9399999999999999	0	42.37807544481374	-10.56658825182964	-10.43232682648139	54.25796872488338	0.9469801996933244	0	0	0	42.37807544481374	-10.56658825182964	-10.43232682648139	54.25796872488338	0.9469801996933244	0	0	0	-1.972350242991105	0.6134518920240505	0.7298002530598142	27.12594515387853	-23.06297785434654	-2.834578131505642	57.33747891531952	127.1610169366948	0	0	70.09233136499654	12.12925712437923	-6.268345811179715	28.65381618328388	123.3427978501995	0	0
15.81999999999975	-3.862457203699628	0.4690865513625963	24.02568294520234	0	0.9399999999999999	0	42.38530466861598	-10.56220633388027	-10.42996270692059	54.25939223411871	0.9470050446164134	0	0	0	42.38530466861598	-10.56220633388027	-10.42996270692059	54.25939223411871	0.9470050446164134	0	0	0	-1.946481594138628	0.6071233520590065	0.716140294803631	27.07491839896602	-23.04201027869031	-2.851502733735047	57.37449050963031	127.1698734641504	0	0	70.01162482340831	12.10480048684188	-6.235038299999418	28.65716383933701	123.0528238900245	0	0
15.83999999999975	-3.854414438388605	0.4795511183802236	24.0782228502345	0	0.9399999999999999	0	42.38620136093763	-10.56153349551968	-10.42963268842625	54.25956212487145	0.9470080097694175	0	0	0	42.38620136093763	-10.56153349551968	-10.42963268842625	54.25956212487145	0.9470080097694175	0	0	0	-1.934980390648884	0.6146926999692943	0.6849634204296718	27.04759540069159	-23.07247612469724	-2.873022113645833	57.3678628017125	127.1810129663713	0	0	70.11692279669865	11.93345225800105	-6.587460739732913	28.56602708994733	123.2897049088937	0	0
15.85999999999975	-3.845009543848986	0.4895093263648269	24.10642373936841	0	0.9399999999999999	0	42.3871884600502	-10.55972904270058	-10.42896646661582	54.25969599591483	0.9470103462598974	3.433284779542974e-36	0	0	42.3871884600502	-10.55972904270058	-10.42896646661582	54.25969599591483	0.9470103462598974	3.433284779542974e-36	0	0	-1.922641827170265	0.6199178527852014	0.6943363154083149	27.06278298541351	-23.07226848626722	-2.908783933809182	57.35755344616219	127.1544435812399	0	0	70.10055139682234	11.93700079260283	-6.622737661977097	28.59897149616976	123.2468329738977	0	0
15.87999999999975	-3.844572693820372	0.5089932042240801	24.1634311967986	0	0.9399999999999999	0	42.38803076354825	-10.55909920301887	-10.42865691555466	54.25985560238107	0.9470131319182409	0	0	0	42.38803076354825	-10.55909920301887	-10.42865691555466	54.25985560238107	0.9470131319182409	0	0	0	-1.914528740916488	0.6379965062108787	0.6887775820868021	27.03981212871532	-23.13155153610987	-2.939992968148657	57.33280178309844	127.1507609961733	0	0	70.16391087816002	11.78815649441614	-6.746836509539054	28.64518156565545	122.9852898927403	0	0
15.89999999999975	-3.845651626956723	0.5133349554751925	24.20917729828643	0	0.9399999999999999	0	42.39880710147082	-10.55214753339198	-10.42501333413911	54.26195055898804	0.9470496958087189	0	0	0	42.39880710147082	-10.55214753339198	-10.42501333413911	54.26195055898804	0.9470496958087189	0	0	0	-1.917718634011782	0.64689191964795	0.6769712210527472	27.06693130624635	-23.15015470366367	-2.922173288421982	57.35168699165801	127.0236889720516	0	0	70.17913853495826	11.79849661838983	-6.754213530294607	28.75545182275759	122.6481181098833	0	0
15.91999999999975	-3.847414296878999	0.528675237817401	24.25614218900391	0	0.9399999999999999	0	42.40774236882804	-10.54636271696138	-10.42198312749939	54.26368692461759	0.9470800011059729	0	0	0	42.40774236882804	-10.54636271696138	-10.42198312749939	54.26368692461759	0.9470800011059729	0	0	0	-1.916191685519769	0.665512348040399	0.6629552154728758	27.07853594321179	-23.1967189456856	-2.950531135169771	57.35765804934515	126.994689033705	0	0	70.17300229520112	11.80962368807149	-6.78251635420738	28.84824242078481	122.2662067635254	0	0
15.93999999999975	-3.844000100822542	0.5276039329484192	24.32052463750701	0	0.9399999999999999	0	42.40805073547718	-10.54613746789098	-10.42187129511755	54.26374591351834	0.9470810306565132	0	0	0	42.40805073547718	-10.54613746789098	-10.42187129511755	54.26374591351834	0.9470810306565132	0	0	0	-1.913611853058741	0.663302852378143	0.6608961344548451	27.05244581297692	-23.20636059424549	-3.013255801450368	57.35006735651087	126.9843089051738	0	0	70.21282145293772	11.63065080025287	-6.942666158002845	28.85330023427566	122.2940640490599	0	0
15.95999999999975	-3.848363216282597	0.539344155005453	24.29445248899781	0	0.9399999999999999	0	42.41523746945104	-10.54190142362218	-10.41955731984957	54.26516669209433	0.947105827920606	0	0	0	42.41523746945104	-10.54190142362218	-10.41955731984957	54.26516669209433	0.947105827920606	0	0	0	-1.91559587597116	0.6781827532802327	0.6720312809056356	27.07247126195169	-23.21286908144691	-3.042922485980355	57.34668785508953	127.0100218571188	0	0	70.23103093793632	11.61056549007239	-7.010352897871338	28.90813077291539	122.0338113943196	0	0
15.97999999999975	-3.847369514787243	0.5427893319120157	24.38727312092139	0	0.9399999999999999	0	42.4155062341088	-10.54170660238707	-10.41946028037014	54.26521826554767	0.9471067280471734	0	0	0	42.4155062341088	-10.54170660238707	-10.41946028037014	54.26521826554767	0.9471067280471734	0	0	0	-1.913304204571896	0.6811985429344062	0.6654517741485312	27.04565107500918	-23.23809548145687	-3.142586280251412	57.33188394297595	126.9970776912952	0	2.016395650497487e-35	70.28220805178134	11.30615139579213	-7.204159772618696	28.91682394993709	122.024693326262	0	2.016395650497487e-35
15.99999999999975	-3.861797161860612	0.5671088462720939	24.42319100924257	0	0.9399999999999999	0	42.41627338854039	-10.54115034425301	-10.41918320793402	54.26536535248881	0.9471092951985829	0	0	0	42.41627338854039	-10.54115034425301	-10.41918320793402	54.26536535248881	0.9471092951985829	0	0	0	-1.916425726426058	0.7106200169001888	0.630415442528825	27.07098105630658	-23.26866160321404	-3.072455447010532	57.33957761611259	126.9915442605517	0	0	70.31617254904036	11.23381662896805	-7.295521942309796	29.32676992126713	121.6680507626375	0	0
16.01999999999975	-3.858935442210128	0.5679299310286353	24.44307293147947	0	0.9399999999999999	0	42.41884139382068	-10.5389930526853	-10.41817407895624	54.26584072889063	0.9471175920819811	0	0	0	42.41884139382068	-10.5389930526853	-10.41817407895624	54.26584072889063	0.9471175920819811	0	0	0	-1.914464229494046	0.7109512969621291	0.6362688753307268	27.07769245909357	-23.2744744589449	-3.071859254601882	57.35302066409083	126.9505628390377	0	7.792838436428724e-36	70.29846745810143	11.25305744388392	-7.271556549051261	29.36720723606366	121.6397244723336	0	7.792838436428724e-36
16.03999999999975	-3.853590498245117	0.5771705702555038	24.52576515469645	0	0.9399999999999999	0	42.41904308988123	-10.53884813716335	-10.41810162725106	54.26587962799474	0.9471182709994238	0	0	0	42.41904308988123	-10.53884813716335	-10.41810162725106	54.26587962799474	0.9471182709994238	0	0	0	-1.905870579229767	0.7170817910992505	0.6408533529138172	27.03118253377735	-23.32917649103021	-3.167376326263179	57.33675503899693	126.9314586626823	0	-1.32249036356679e-53	70.35047630460505	11.0269239515383	-7.380402193138251	29.35407010100564	121.6245685666929	0	-1.32249036356679e-53
16.05999999999975	-3.854959081740855	0.5894606669969349	24.56236949473116	0	0.9399999999999999	0	42.43122366440083	-10.53069239840582	-10.41388979432235	54.26823019683431	0.9471592961649691	0	0	0	42.43122366440083	-10.53069239840582	-10.41388979432235	54.26823019683431	0.9471592961649691	0	0	0	-1.906242010001369	0.7344056965421362	0.6121103390878111	27.03350488800396	-23.34942377710931	-3.156227504667971	57.38736104474501	126.9072832491066	0	0	70.37134994641187	10.99382621514448	-7.419715000281874	29.5197415213293	121.2110946023574	0	0
16.07999999999975	-3.85556436248855	0.5992651821532461	24.58478579035604	0	0.9399999999999999	0	42.43494085562217	-10.52745238933042	-10.41239113141968	54.26891056434649	0.9471711708181803	0	0	0	42.43494085562217	-10.52745238933042	-10.41239113141968	54.26891056434649	0.9471711708181803	0	0	0	-1.904008897690918	0.7450156750511138	0.6090860202565281	27.03296209695707	-23.38816908815256	-3.164825878461301	57.40116288384809	126.8691125916648	0	1.93698587651478e-35	70.38709756376885	10.90804704767933	-7.387808140510296	29.59758799652883	121.1574522524185	0	1.93698587651478e-35
16.09999999999975	-3.854274819008041	0.6041009886588453	24.59653633448192	0	0.9399999999999999	0	42.4355379321314	-10.52637212233845	-10.4119875069779	54.26899042112286	0.9471725645818579	0	0	0	42.4355379321314	-10.52637212233845	-10.4119875069779	54.26899042112286	0.9471725645818579	0	0	0	-1.901023634360493	0.7488894335618029	0.6141537663219705	27.03032878692125	-23.38901544583128	-3.169813480549453	57.39909286693003	126.8687903053683	0	-9.640787355183946e-53	70.38905360680396	10.91991633082771	-7.386563666701191	29.61009405680275	121.1385128567341	0	-9.640787355183946e-53
16.11999999999975	-3.856083334949855	0.6120962810879755	24.59555749784428	0	0.9399999999999999	0	42.43932769606749	-10.52365416860712	-10.41063073830964	54.26971480614822	0.9471852074856026	0	0	0	42.43932769606749	-10.52365416860712	-10.41063073830964	54.26971480614822	0.9471852074856026	0	0	0	-1.90082830649286	0.7580007928127512	0.6264430539508502	27.02501796442234	-23.41236042726883	-3.175545194761038	57.39882537634092	126.8554254154445	0	0	70.38419799052777	10.92848527489013	-7.270405444416763	29.63000053743508	121.0690297094147	0	0
